<svg xmlns="http://www.w3.org/2000/svg" viewBox="0 0 180 180"><defs/><path d="M82 180h-1L0 99v-3l6-6-6-6v-3L81 0h3l6 6 6-6h3l81 81v3l-6 6 6 6v3l-81 81h-3l-6-6-6 6h-2zm0-1L1 98l8-8-8-8L82 1l8 8 8-8 81 81-8 8 8 8-81 81-8-8-8 8zM175 0h-26l5 8a10 10 0 007 17c2 0 3 1 3 3v4h16V0h-5l1 3a6 6 0 11-11-3h10-13l-1 3v4a8 8 0 000 16c3 0 5 2 5 5v2h4v-4h2v4h4v-4h2v4h2V0h-5zm-16 0v5l-3 2-5-7h8zm21 17h-3l2-10h1v10zm-31 163a24 24 0 0123-32h8v32h-31zm13 0l2-4-1-1-4 5h-8a22 22 0 0121-30h8v30h-18zm13 0a6 6 0 00-10 0h10zM0 148h8a24 24 0 0123 32H0v-32zm0 2h8a22 22 0 0121 30h-8l-4-5-1 1 2 4H0v-30zm15 30a6 6 0 00-10 0h10zM0 32h16v-4c0-2 1-3 3-3a10 10 0 007-17l5-8H0v32zm0-2h2v-4h2v4h4v-4h2v4h4v-2c0-3 2-5 5-5a8 8 0 100-16V3l-1-3H0v30zM29 0l-5 7-3-2V3 0h8zM0 17h3L1 7H0v10zM15 0l1 3A6 6 0 115 0h10zm94 115c-2 0-3 1-3 3v4H74v-4c0-2-1-3-3-3a10 10 0 01-7-17c-4-4-6-10-6-16 0-13 11-24 24-24h16a24 24 0 0118 40 10 10 0 01-7 17zm0-2c-3 0-5 2-5 5v2h-4v-4h-2v4h-4v-4h-2v4h-4v-4h-2v4h-4v-4h-2v4h-4v-2c0-3-2-5-5-5a8 8 0 110-16v-4c0-3 1-5 3-7l-1-1c-3 2-4 5-4 8v2l-3 2a22 22 0 0116-37h16a22 22 0 0116 37l-3-2v-2c0-3-1-6-4-8l-1 1c2 2 3 4 3 7v4a8 8 0 010 16zM91 97l2 10h-6l2-10h2zm-11 2a6 6 0 100-12 6 6 0 000 12zm20 0a6 6 0 100-12 6 6 0 000 12z" fill="#000" fill-rule="evenodd"/></svg>